<svg xmlns="http://www.w3.org/2000/svg" viewBox="0 0 512 512" width="512" height="512">
  <defs>
    <linearGradient id="brand" x1="0%" y1="0%" x2="100%" y2="100%">
      <stop offset="0%" stop-color="#5B3FE8"/>
      <stop offset="100%" stop-color="#9F3FD9"/>
    </linearGradient>
    <linearGradient id="shine" x1="0%" y1="0%" x2="0%" y2="100%">
      <stop offset="0%" stop-color="#ffffff" stop-opacity="0.22"/>
      <stop offset="50%" stop-color="#ffffff" stop-opacity="0"/>
    </linearGradient>
  </defs>
  <rect width="512" height="512" rx="112" ry="112" fill="url(#brand)"/>
  <rect width="512" height="512" rx="112" ry="112" fill="url(#shine)"/>
  <g fill="#ffffff">
    <path d="M 152 116
             L 288 116
             C 348 116 388 150 388 200
             C 388 232 370 256 344 270
             C 378 282 400 312 400 352
             C 400 406 356 440 294 440
             L 152 440
             Z
             M 216 172
             L 216 244
             L 280 244
             C 306 244 324 230 324 208
             C 324 186 306 172 280 172
             Z
             M 216 296
             L 216 384
             L 288 384
             C 318 384 336 368 336 340
             C 336 312 318 296 288 296
             Z" />
    <circle cx="420" cy="92" r="24" fill="#ffffff" opacity="0.9"/>
    <circle cx="420" cy="92" r="10" fill="url(#brand)"/>
  </g>
</svg>
